<svg width="1674" height="1117" viewBox="0 0 1674 1117" fill="none" xmlns="http://www.w3.org/2000/svg">
<g clip-path="url(#clip0_93_869)">
<mask id="mask0_93_869" style="mask-type:luminance" maskUnits="userSpaceOnUse" x="0" y="-266" width="1814" height="1700">
<path d="M1813.33 -266H0V1434H1813.33V-266Z" fill="white"/>
</mask>
<g mask="url(#mask0_93_869)">
<path d="M131.013 610.951L66.232 573.551L1.45068 610.951V685.751L66.232 723.151L131.013 685.751M131.013 610.951V685.751M131.013 610.951L195.795 573.551M131.013 685.751L195.795 723.151L260.576 685.751M260.576 -211.849L325.357 -174.449M260.576 -211.849L195.795 -174.449V-99.6493L260.576 -62.2493L325.357 -99.6493V-174.449M260.576 -211.849V-286.649L325.357 -324.049L390.139 -286.649V-211.849L325.357 -174.449M325.357 573.551V498.751L260.576 461.351L195.795 498.751V573.551M325.357 573.551L260.576 610.951M325.357 573.551L390.139 610.951M260.576 610.951L195.795 573.551M260.576 610.951V685.751M260.576 685.751L325.357 723.151M390.139 610.951V685.751M390.139 610.951L454.92 573.551L519.701 610.951V685.751M390.139 685.751L325.357 723.151M390.139 685.751L454.92 723.151M325.357 723.151V797.951L390.139 835.351L454.92 797.951M454.92 723.151V797.951M454.92 723.151L519.701 685.751M454.92 797.951L519.701 835.351M519.701 685.751L584.471 723.151M584.471 723.151V797.951M584.471 723.151L649.253 685.751L714.034 723.151V797.951M584.471 797.951L519.701 835.351M584.471 797.951L649.253 835.351M519.701 835.351V910.151L584.471 947.551L649.253 910.151M714.034 797.951L649.253 835.351M714.034 797.951L778.815 835.351M649.253 835.351V910.151M649.253 910.151L714.034 947.551L778.815 910.151M778.815 835.351V910.151M778.815 835.351L843.597 797.951M778.815 910.151L843.597 947.551L908.378 910.151V835.351M973.159 -99.6493V-174.449L908.378 -211.849L843.597 -174.449V-99.6493L908.378 -62.2493M973.159 -99.6493L908.378 -62.2493M973.159 -99.6493L1037.94 -62.2493V12.5507M908.378 -62.2493V12.5507M908.378 12.5507L973.159 49.9507M908.378 12.5507L843.597 49.9507V124.751M973.159 49.9507V124.751M973.159 49.9507L1037.94 12.5507M973.159 124.751L908.378 162.151M973.159 124.751L1037.94 162.151M908.378 162.151L843.597 124.751M908.378 162.151V236.951L843.597 274.351L778.815 236.951V162.151L843.597 124.751M908.378 610.951L973.159 573.551V498.751L908.378 461.351L843.597 498.751V573.551M908.378 610.951L843.597 573.551M908.378 610.951V685.751M843.597 573.551L778.815 610.951V685.751L843.597 723.151M908.378 685.751L843.597 723.151M908.378 685.751L973.159 723.151V797.951L908.378 835.351M843.597 723.151V797.951M908.378 835.351L843.597 797.951M1037.94 12.5507L1102.72 49.9507M1102.72 49.9507V124.751M1102.72 49.9507L1167.5 12.5507L1232.28 49.9507V124.751L1167.5 162.151M1102.72 124.751L1037.94 162.151M1102.72 124.751L1167.5 162.151M1037.94 162.151V236.951M1037.94 236.951L1102.72 274.351M1037.94 236.951L973.159 274.351V349.151L1037.94 386.551L1102.72 349.151V274.351M1102.72 274.351L1167.5 236.951V162.151M1167.5 -286.649L1102.72 -324.049L1037.94 -286.649V-211.849L1102.72 -174.449M1167.5 -286.649V-211.849M1167.5 -286.649L1232.28 -324.049L1297.07 -286.649V-211.849L1232.28 -174.449M1167.5 -211.849L1102.72 -174.449M1167.5 -211.849L1232.28 -174.449M1102.72 -174.449V-99.6493L1167.5 -62.2493L1232.28 -99.6493V-174.449M1167.5 1134.55L1232.28 1171.95M1167.5 1134.55L1102.72 1171.95V1246.75L1167.5 1284.15L1232.28 1246.75V1171.95M1167.5 1134.55V1059.75L1232.28 1022.35M1232.28 1171.95L1297.07 1134.55M1297.07 386.551L1232.28 349.151L1167.5 386.551V461.351L1232.28 498.751M1297.07 386.551V461.351M1297.07 386.551L1361.85 349.151L1426.63 386.551V461.351M1297.07 461.351L1232.28 498.751M1297.07 461.351L1361.85 498.751M1232.28 498.751V573.551L1297.07 610.951M1361.85 498.751V573.551M1361.85 498.751L1426.63 461.351M1361.85 573.551L1297.07 610.951M1361.85 573.551L1426.63 610.951M1297.07 610.951V685.751L1361.85 723.151L1426.63 685.751M1297.07 835.351L1232.28 797.951L1167.5 835.351V910.151L1232.28 947.551M1297.07 835.351V910.151M1297.07 835.351L1361.85 797.951L1426.63 835.351V910.151L1361.85 947.551M1297.07 910.151L1232.28 947.551M1297.07 910.151L1361.85 947.551M1232.28 947.551V1022.35M1361.85 947.551V1022.35M1361.85 1022.35L1297.07 1059.75M1361.85 1022.35L1426.63 1059.75V1134.55M1297.07 1059.75L1232.28 1022.35M1297.07 1059.75V1134.55M1297.07 1134.55L1361.85 1171.95M1426.63 461.351L1491.4 498.751V573.551M1491.4 573.551L1426.63 610.951M1491.4 573.551L1556.18 610.951V685.751L1491.4 723.151L1426.63 685.751M1426.63 610.951V685.751M1426.63 1134.55L1361.85 1171.95M1426.63 1134.55L1491.4 1171.95V1246.75L1426.63 1284.15L1361.85 1246.75V1171.95M1620.96 124.751V49.9507L1556.18 12.5507L1491.4 49.9507V124.751L1556.18 162.151M1620.96 124.751L1556.18 162.151M1620.96 124.751L1685.74 162.151M1556.18 162.151V236.951L1620.96 274.351L1685.74 236.951M1685.74 -211.849L1750.52 -174.449M1685.74 -211.849L1620.96 -174.449V-99.6493L1685.74 -62.2493L1750.52 -99.6493M1685.74 -211.849V-286.649L1750.52 -324.049L1815.31 -286.649V-211.849M1750.52 -174.449V-99.6493M1750.52 -174.449L1815.31 -211.849M1750.52 -99.6493L1815.31 -62.2493L1880.09 -99.6493V-174.449L1815.31 -211.849M1685.74 162.151V236.951M1685.74 162.151L1750.52 124.751L1815.31 162.151V236.951L1750.52 274.351L1685.74 236.951M1685.74 1059.75L1620.96 1022.35L1556.18 1059.75V1134.55L1620.96 1171.95M1685.74 1059.75V1134.55M1685.74 1059.75L1750.52 1022.35L1815.31 1059.75V1134.55L1750.52 1171.95M1685.74 1134.55L1620.96 1171.95M1685.74 1134.55L1750.52 1171.95M1620.96 1171.95V1246.75M1750.52 1171.95V1246.75L1685.74 1284.15M1685.74 1284.15L1620.96 1246.75M1685.74 1284.15V1358.95L1620.96 1396.35L1556.18 1358.95V1284.15L1620.96 1246.75M1815.31 685.751V610.951L1750.52 573.551L1685.74 610.951V685.751L1750.52 723.151M1815.31 685.751L1750.52 723.151M1815.31 685.751L1880.09 723.151V797.951L1815.31 835.351L1750.52 797.951V723.151M66.232 -324.049L131.013 -286.649V-211.849L66.232 -174.449L1.45068 -211.849V-286.649L66.232 -324.049ZM131.013 12.5507L195.795 49.9507V124.751L131.013 162.151L66.232 124.751V49.9507L131.013 12.5507ZM66.232 1022.35L131.013 1059.75V1134.55L66.232 1171.95L1.45068 1134.55V1059.75L66.232 1022.35ZM195.795 797.951L260.576 835.351V910.151L195.795 947.551L131.013 910.151V835.351L195.795 797.951ZM390.139 236.951L454.92 274.351V349.151L390.139 386.551L325.357 349.151V274.351L390.139 236.951ZM390.139 1134.55L454.92 1171.95V1246.75L390.139 1284.15L325.357 1246.75V1171.95L390.139 1134.55ZM390.139 1358.95L454.92 1396.35V1471.15L390.139 1508.55L325.357 1471.15V1396.35L390.139 1358.95ZM584.471 124.751L649.253 162.151V236.951L584.471 274.351L519.701 236.951V162.151L584.471 124.751ZM714.034 -324.049L778.815 -286.649V-211.849L714.034 -174.449L649.253 -211.849V-286.649L714.034 -324.049ZM714.034 -99.6493L778.815 -62.2493V12.5507L714.034 49.9507L649.253 12.5507V-62.2493L714.034 -99.6493ZM714.034 349.151L778.815 386.551V461.351L714.034 498.751L649.253 461.351V386.551L714.034 349.151ZM778.815 1134.55L843.597 1171.95V1246.75L778.815 1284.15L714.034 1246.75V1171.95L778.815 1134.55ZM908.378 1358.95L973.159 1396.35V1471.15L908.378 1508.55L843.597 1471.15V1396.35L908.378 1358.95ZM973.159 1022.35L1037.94 1059.75V1134.55L973.159 1171.95L908.378 1134.55V1059.75L973.159 1022.35ZM1102.72 573.551L1167.5 610.951V685.751L1102.72 723.151L1037.94 685.751V610.951L1102.72 573.551ZM1361.85 -99.6493L1426.63 -62.2493V12.5507L1361.85 49.9507L1297.07 12.5507V-62.2493L1361.85 -99.6493ZM1620.96 349.151L1685.74 386.551V461.351L1620.96 498.751L1556.18 461.351V386.551L1620.96 349.151Z" stroke="black" stroke-opacity="0.32" stroke-width="2"/>
<path d="M56.4627 316.42V259.753L7.38937 231.42L-41.684 259.753V316.42L7.38937 344.753M56.4627 316.42L7.38937 344.753M56.4627 316.42L105.547 344.753V401.42M7.38937 344.753V401.42L56.4627 429.753M105.547 401.42L56.4627 429.753M105.547 401.42L154.621 429.753V486.42M56.4627 429.753V486.42L105.547 514.753M56.4627 599.753L7.38937 571.42L-41.684 599.753V656.42L7.38937 684.753M56.4627 599.753V656.42M56.4627 599.753L105.547 571.42M56.4627 656.42L7.38937 684.753M56.4627 656.42L105.547 684.753M7.38937 684.753V741.42L56.4627 769.753M105.547 684.753V741.42M105.547 684.753L154.621 656.42M105.547 741.42L56.4627 769.753M105.547 741.42L154.621 769.753M56.4627 769.753V826.42L105.547 854.753L154.621 826.42M56.4627 996.42L105.547 1024.75M56.4627 996.42L7.38937 1024.75V1081.42L56.4627 1109.75L105.547 1081.42M56.4627 996.42V939.753L105.547 911.42L154.621 939.753M105.547 1024.75V1081.42M105.547 1024.75L154.621 996.42M105.547 1081.42L154.621 1109.75L203.694 1081.42V1024.75M105.547 1251.42V1194.75L56.4627 1166.42L7.38937 1194.75V1251.42L56.4627 1279.75M105.547 1251.42L56.4627 1279.75M105.547 1251.42L154.621 1279.75V1336.42L105.547 1364.75L56.4627 1336.42V1279.75M154.621 -23.58L203.694 4.75338M154.621 -23.58L105.547 4.75338V61.42M154.621 -23.58V-80.2466L203.694 -108.58L252.767 -80.2466M203.694 4.75338V61.42M203.694 4.75338L252.767 -23.58M203.694 61.42L154.621 89.7534M203.694 61.42L252.767 89.7534M154.621 89.7534L105.547 61.42M154.621 89.7534V146.42M105.547 61.42L56.4627 89.7534V146.42L105.547 174.753L154.621 146.42M154.621 146.42L203.694 174.753L252.767 146.42M154.621 486.42L105.547 514.753M154.621 486.42L203.694 514.753V571.42M105.547 514.753V571.42M203.694 571.42L154.621 599.753M203.694 571.42L252.767 599.753V656.42M154.621 599.753L105.547 571.42M154.621 599.753V656.42M154.621 656.42L203.694 684.753M203.694 684.753V741.42M203.694 684.753L252.767 656.42M203.694 741.42L154.621 769.753M203.694 741.42L252.767 769.753M154.621 769.753V826.42M154.621 826.42L203.694 854.753M154.621 939.753V996.42M154.621 939.753L203.694 911.42M154.621 996.42L203.694 1024.75M203.694 1024.75L252.767 996.42M252.767 -250.247L203.694 -278.58L154.621 -250.247V-193.58L203.694 -165.247L252.767 -193.58M252.767 -250.247V-193.58M252.767 -250.247L301.841 -278.58L350.925 -250.247M252.767 -193.58L301.841 -165.247M252.767 -80.2466V-23.58M252.767 -80.2466L301.841 -108.58M252.767 -23.58L301.841 4.75338L350.925 -23.58M252.767 89.7534V146.42M252.767 89.7534L301.841 61.42L350.925 89.7534M252.767 146.42L301.841 174.753L350.925 146.42M252.767 656.42L301.841 684.753V741.42L252.767 769.753M252.767 769.753V826.42M252.767 826.42L203.694 854.753M252.767 826.42L301.841 854.753M203.694 854.753V911.42M301.841 854.753V911.42M301.841 854.753L350.925 826.42L399.999 854.753M301.841 911.42L252.767 939.753M301.841 911.42L350.925 939.753M252.767 939.753L203.694 911.42M252.767 939.753V996.42M252.767 996.42L301.841 1024.75M301.841 1421.42V1364.75L252.767 1336.42L203.694 1364.75V1421.42L252.767 1449.75M301.841 1421.42L252.767 1449.75M301.841 1421.42L350.925 1449.75M252.767 1449.75V1506.42L301.841 1534.75L350.925 1506.42M350.925 -250.247V-193.58M350.925 -250.247L399.999 -278.58L449.072 -250.247M350.925 -193.58L301.841 -165.247M350.925 -193.58L399.999 -165.247M301.841 -165.247V-108.58M399.999 -165.247V-108.58M399.999 -165.247L449.072 -193.58M399.999 -108.58L350.925 -80.2466M399.999 -108.58L449.072 -80.2466V-23.58L399.999 4.75338L350.925 -23.58M350.925 -80.2466L301.841 -108.58M350.925 -80.2466V-23.58M350.925 89.7534V146.42M350.925 89.7534L399.999 61.42L449.072 89.7534V146.42L399.999 174.753L350.925 146.42M399.999 854.753V911.42M399.999 854.753L449.072 826.42M399.999 911.42L350.925 939.753M399.999 911.42L449.072 939.753M350.925 939.753V996.42M350.925 996.42L301.841 1024.75M350.925 996.42L399.999 1024.75V1081.42M301.841 1024.75V1081.42L350.925 1109.75M399.999 1081.42L350.925 1109.75M399.999 1081.42L449.072 1109.75V1166.42L399.999 1194.75L350.925 1166.42V1109.75M350.925 1449.75V1506.42M350.925 1449.75L399.999 1421.42M350.925 1506.42L399.999 1534.75L449.072 1506.42V1449.75M449.072 -250.247V-193.58M449.072 -250.247L498.157 -278.58L547.23 -250.247V-193.58M449.072 -193.58L498.157 -165.247M449.072 486.42V429.753L399.999 401.42L350.925 429.753V486.42L399.999 514.753M449.072 486.42L399.999 514.753M449.072 486.42L498.157 514.753M399.999 514.753V571.42M498.157 514.753V571.42M498.157 514.753L547.23 486.42L596.303 514.753V571.42M498.157 571.42L449.072 599.753M498.157 571.42L547.23 599.753M449.072 599.753L399.999 571.42M449.072 599.753V656.42M399.999 571.42L350.925 599.753V656.42L399.999 684.753M449.072 656.42L399.999 684.753M449.072 656.42L498.157 684.753M399.999 684.753V741.42L449.072 769.753M498.157 684.753V741.42M498.157 684.753L547.23 656.42M498.157 741.42L449.072 769.753M498.157 741.42L547.23 769.753M449.072 769.753V826.42M449.072 826.42L498.157 854.753M498.157 854.753V911.42M498.157 854.753L547.23 826.42V769.753M498.157 911.42L449.072 939.753M498.157 911.42L547.23 939.753V996.42L498.157 1024.75L449.072 996.42V939.753M449.072 1336.42V1279.75L399.999 1251.42L350.925 1279.75V1336.42L399.999 1364.75M449.072 1336.42L399.999 1364.75M449.072 1336.42L498.157 1364.75M399.999 1364.75V1421.42M498.157 1364.75V1421.42M498.157 1364.75L547.23 1336.42M498.157 1421.42L449.072 1449.75M498.157 1421.42L547.23 1449.75L596.303 1421.42V1364.75M449.072 1449.75L399.999 1421.42M547.23 -193.58L498.157 -165.247M547.23 -193.58L596.303 -165.247V-108.58L547.23 -80.2466L498.157 -108.58V-165.247M596.303 4.75338L547.23 -23.58L498.157 4.75338V61.42L547.23 89.7534M596.303 4.75338V61.42M596.303 4.75338L645.377 -23.58L694.45 4.75338V61.42L645.377 89.7534M596.303 61.42L547.23 89.7534M596.303 61.42L645.377 89.7534M547.23 89.7534V146.42M547.23 146.42L596.303 174.753M547.23 146.42L498.157 174.753V231.42L547.23 259.753L596.303 231.42V174.753M596.303 174.753L645.377 146.42V89.7534M596.303 571.42L547.23 599.753M596.303 571.42L645.377 599.753M547.23 599.753V656.42M547.23 656.42L596.303 684.753M596.303 684.753V741.42M596.303 684.753L645.377 656.42M596.303 741.42L547.23 769.753M596.303 741.42L645.377 769.753L694.45 741.42V684.753M547.23 1336.42L596.303 1364.75M547.23 1336.42V1279.75L596.303 1251.42L645.377 1279.75V1336.42L596.303 1364.75M645.377 599.753V656.42M645.377 599.753L694.45 571.42M645.377 656.42L694.45 684.753M694.45 684.753L743.535 656.42M694.45 854.753L645.377 826.42L596.303 854.753V911.42L645.377 939.753L694.45 911.42M694.45 854.753V911.42M694.45 854.753L743.535 826.42L792.608 854.753M694.45 911.42L743.535 939.753M645.377 1109.75L596.303 1081.42L547.23 1109.75V1166.42L596.303 1194.75L645.377 1166.42M645.377 1109.75V1166.42M645.377 1109.75L694.45 1081.42M645.377 1166.42L694.45 1194.75L743.535 1166.42V1109.75M743.535 259.753L694.45 231.42L645.377 259.753V316.42L694.45 344.753M743.535 259.753V316.42M743.535 259.753L792.608 231.42L841.681 259.753M743.535 316.42L694.45 344.753M743.535 316.42L792.608 344.753M694.45 344.753V401.42M792.608 344.753V401.42M792.608 344.753L841.681 316.42M792.608 401.42L743.535 429.753M792.608 401.42L841.681 429.753M743.535 429.753L694.45 401.42M743.535 429.753V486.42M694.45 401.42L645.377 429.753V486.42L694.45 514.753M743.535 486.42L694.45 514.753M743.535 486.42L792.608 514.753M694.45 514.753V571.42M792.608 514.753V571.42M792.608 514.753L841.681 486.42M792.608 571.42L743.535 599.753M792.608 571.42L841.681 599.753M743.535 599.753L694.45 571.42M743.535 599.753V656.42M743.535 656.42L792.608 684.753M792.608 854.753V911.42M792.608 854.753L841.681 826.42M792.608 911.42L743.535 939.753M792.608 911.42L841.681 939.753M743.535 939.753V996.42M743.535 996.42L792.608 1024.75M743.535 996.42L694.45 1024.75V1081.42M792.608 1024.75V1081.42M792.608 1024.75L841.681 996.42M792.608 1081.42L743.535 1109.75M792.608 1081.42L841.681 1109.75M743.535 1109.75L694.45 1081.42M792.608 1421.42V1364.75L743.535 1336.42L694.45 1364.75V1421.42M792.608 1421.42L743.535 1449.75M792.608 1421.42L841.681 1449.75V1506.42L792.608 1534.75L743.535 1506.42M743.535 1449.75L694.45 1421.42M743.535 1449.75V1506.42M694.45 1421.42L645.377 1449.75V1506.42L694.45 1534.75L743.535 1506.42M841.681 -193.58L890.766 -165.247M841.681 -193.58L792.608 -165.247V-108.58L841.681 -80.2466L890.766 -108.58V-165.247M841.681 -193.58V-250.247L890.766 -278.58L939.839 -250.247V-193.58L890.766 -165.247M841.681 259.753V316.42M841.681 259.753L890.766 231.42M841.681 316.42L890.766 344.753M890.766 344.753V401.42L841.681 429.753M890.766 344.753L939.839 316.42M841.681 429.753V486.42M841.681 486.42L890.766 514.753M890.766 514.753V571.42M890.766 514.753L939.839 486.42L988.913 514.753V571.42M890.766 571.42L841.681 599.753M890.766 571.42L939.839 599.753M841.681 599.753V656.42M841.681 656.42L792.608 684.753M841.681 656.42L890.766 684.753M792.608 684.753V741.42L841.681 769.753M890.766 684.753V741.42M890.766 684.753L939.839 656.42M890.766 741.42L841.681 769.753M890.766 741.42L939.839 769.753M841.681 769.753V826.42M841.681 826.42L890.766 854.753M890.766 854.753V911.42L841.681 939.753M890.766 854.753L939.839 826.42V769.753M841.681 939.753V996.42M841.681 996.42L890.766 1024.75V1081.42M890.766 1081.42L841.681 1109.75M890.766 1081.42L939.839 1109.75M841.681 1109.75V1166.42L890.766 1194.75M939.839 89.7534L988.913 61.42V4.75338L939.839 -23.58L890.766 4.75338V61.42M939.839 89.7534L890.766 61.42M939.839 89.7534V146.42M890.766 61.42L841.681 89.7534V146.42L890.766 174.753M939.839 146.42L890.766 174.753M939.839 146.42L988.913 174.753M890.766 174.753V231.42M988.913 174.753V231.42M988.913 174.753L1037.99 146.42M988.913 231.42L939.839 259.753M988.913 231.42L1037.99 259.753M939.839 259.753L890.766 231.42M939.839 259.753V316.42M939.839 316.42L988.913 344.753M988.913 571.42L939.839 599.753M988.913 571.42L1037.99 599.753M939.839 599.753V656.42M939.839 656.42L988.913 684.753M988.913 684.753V741.42L939.839 769.753M988.913 684.753L1037.99 656.42M939.839 1109.75V1166.42M939.839 1109.75L988.913 1081.42L1037.99 1109.75M939.839 1166.42L890.766 1194.75M939.839 1166.42L988.913 1194.75M890.766 1194.75V1251.42L939.839 1279.75M988.913 1194.75V1251.42M988.913 1194.75L1037.99 1166.42M988.913 1251.42L939.839 1279.75M988.913 1251.42L1037.99 1279.75M939.839 1279.75V1336.42M939.839 1336.42L988.913 1364.75M939.839 1336.42L890.766 1364.75V1421.42L939.839 1449.75M988.913 1364.75V1421.42M988.913 1364.75L1037.99 1336.42M988.913 1421.42L939.839 1449.75M988.913 1421.42L1037.99 1449.75M939.839 1449.75V1506.42L988.913 1534.75L1037.99 1506.42M1037.99 146.42L1087.07 174.753M1037.99 146.42V89.7534L1087.07 61.42M1087.07 174.753V231.42L1037.99 259.753M1087.07 174.753L1136.14 146.42M1037.99 259.753V316.42M1037.99 316.42L988.913 344.753M1037.99 316.42L1087.07 344.753V401.42L1037.99 429.753L988.913 401.42V344.753M1037.99 599.753V656.42M1037.99 599.753L1087.07 571.42L1136.14 599.753V656.42M1037.99 656.42L1087.07 684.753M1037.99 1109.75V1166.42M1037.99 1109.75L1087.07 1081.42M1037.99 1166.42L1087.07 1194.75M1037.99 1279.75V1336.42M1037.99 1279.75L1087.07 1251.42M1037.99 1336.42L1087.07 1364.75M1087.07 1364.75V1421.42M1087.07 1364.75L1136.14 1336.42M1087.07 1421.42L1037.99 1449.75M1087.07 1421.42L1136.14 1449.75V1506.42L1087.07 1534.75L1037.99 1506.42M1037.99 1449.75V1506.42M1185.22 -165.247L1136.14 -193.58L1087.07 -165.247V-108.58M1185.22 -165.247V-108.58M1185.22 -165.247L1234.29 -193.58L1283.36 -165.247M1185.22 -108.58L1136.14 -80.2466M1185.22 -108.58L1234.29 -80.2466M1136.14 -80.2466L1087.07 -108.58M1136.14 -80.2466V-23.58M1087.07 -108.58L1037.99 -80.2466V-23.58L1087.07 4.75338M1136.14 -23.58L1087.07 4.75338M1136.14 -23.58L1185.22 4.75338M1087.07 4.75338V61.42M1185.22 4.75338V61.42M1185.22 4.75338L1234.29 -23.58M1185.22 61.42L1136.14 89.7534M1185.22 61.42L1234.29 89.7534M1136.14 89.7534L1087.07 61.42M1136.14 89.7534V146.42M1136.14 146.42L1185.22 174.753L1234.29 146.42M1136.14 656.42L1087.07 684.753M1136.14 656.42L1185.22 684.753V741.42L1136.14 769.753L1087.07 741.42V684.753M1185.22 854.753L1136.14 826.42L1087.07 854.753V911.42M1185.22 854.753V911.42M1185.22 854.753L1234.29 826.42M1185.22 911.42L1136.14 939.753M1185.22 911.42L1234.29 939.753M1136.14 939.753L1087.07 911.42M1136.14 939.753V996.42M1087.07 911.42L1037.99 939.753V996.42L1087.07 1024.75M1136.14 996.42L1087.07 1024.75M1136.14 996.42L1185.22 1024.75M1087.07 1024.75V1081.42M1185.22 1024.75V1081.42L1136.14 1109.75M1185.22 1024.75L1234.29 996.42V939.753M1136.14 1109.75L1087.07 1081.42M1136.14 1109.75V1166.42M1136.14 1166.42L1087.07 1194.75M1136.14 1166.42L1185.22 1194.75V1251.42M1087.07 1194.75V1251.42M1185.22 1251.42L1136.14 1279.75M1185.22 1251.42L1234.29 1279.75V1336.42L1185.22 1364.75L1136.14 1336.42M1136.14 1279.75L1087.07 1251.42M1136.14 1279.75V1336.42M1283.36 -165.247V-108.58M1283.36 -165.247L1332.45 -193.58L1381.52 -165.247M1283.36 -108.58L1234.29 -80.2466M1283.36 -108.58L1332.45 -80.2466M1234.29 -80.2466V-23.58M1234.29 -23.58L1283.36 4.75338V61.42M1283.36 61.42L1234.29 89.7534M1283.36 61.42L1332.45 89.7534V146.42M1234.29 89.7534V146.42M1234.29 146.42L1283.36 174.753M1234.29 259.753L1185.22 231.42L1136.14 259.753V316.42L1185.22 344.753L1234.29 316.42M1234.29 259.753V316.42M1234.29 259.753L1283.36 231.42M1234.29 316.42L1283.36 344.753M1234.29 486.42V429.753L1185.22 401.42L1136.14 429.753V486.42L1185.22 514.753M1234.29 486.42L1185.22 514.753M1234.29 486.42L1283.36 514.753M1185.22 514.753V571.42L1234.29 599.753M1283.36 514.753V571.42M1283.36 514.753L1332.45 486.42M1283.36 571.42L1234.29 599.753M1283.36 571.42L1332.45 599.753M1234.29 599.753V656.42L1283.36 684.753L1332.45 656.42V599.753M1234.29 826.42L1283.36 854.753M1234.29 826.42V769.753L1283.36 741.42L1332.45 769.753V826.42M1283.36 854.753V911.42M1283.36 854.753L1332.45 826.42M1283.36 911.42L1234.29 939.753M1283.36 911.42L1332.45 939.753M1381.52 -165.247V-108.58M1381.52 -165.247L1430.6 -193.58M1381.52 -108.58L1332.45 -80.2466M1381.52 -108.58L1430.6 -80.2466M1332.45 -80.2466V-23.58L1381.52 4.75338L1430.6 -23.58M1332.45 146.42L1283.36 174.753M1332.45 146.42L1381.52 174.753V231.42L1332.45 259.753M1283.36 174.753V231.42M1332.45 259.753L1283.36 231.42M1332.45 259.753V316.42M1332.45 316.42L1283.36 344.753M1332.45 316.42L1381.52 344.753V401.42M1283.36 344.753V401.42L1332.45 429.753M1381.52 401.42L1332.45 429.753M1381.52 401.42L1430.6 429.753M1332.45 429.753V486.42M1332.45 486.42L1381.52 514.753M1381.52 514.753V571.42L1332.45 599.753M1381.52 514.753L1430.6 486.42M1332.45 826.42L1381.52 854.753V911.42M1381.52 911.42L1332.45 939.753M1381.52 911.42L1430.6 939.753V996.42M1332.45 939.753V996.42L1381.52 1024.75M1332.45 1109.75L1283.36 1081.42L1234.29 1109.75V1166.42L1283.36 1194.75M1332.45 1109.75V1166.42M1332.45 1109.75L1381.52 1081.42M1332.45 1166.42L1283.36 1194.75M1332.45 1166.42L1381.52 1194.75M1283.36 1194.75V1251.42L1332.45 1279.75L1381.52 1251.42M1381.52 1194.75V1251.42M1381.52 1194.75L1430.6 1166.42M1381.52 1251.42L1430.6 1279.75M1332.45 1449.75L1283.36 1421.42L1234.29 1449.75V1506.42L1283.36 1534.75L1332.45 1506.42M1332.45 1449.75V1506.42M1332.45 1449.75L1381.52 1421.42M1332.45 1506.42L1381.52 1534.75L1430.6 1506.42V1449.75M1430.6 -193.58L1479.68 -165.247M1430.6 -193.58V-250.247L1479.68 -278.58L1528.75 -250.247V-193.58L1479.68 -165.247M1479.68 -165.247V-108.58M1479.68 -108.58L1430.6 -80.2466M1479.68 -108.58L1528.75 -80.2466V-23.58L1479.68 4.75338L1430.6 -23.58M1430.6 -80.2466V-23.58M1430.6 429.753V486.42M1430.6 429.753L1479.68 401.42M1430.6 486.42L1479.68 514.753L1528.75 486.42V429.753M1430.6 996.42L1381.52 1024.75M1430.6 996.42L1479.68 1024.75V1081.42M1381.52 1024.75V1081.42M1479.68 1081.42L1430.6 1109.75M1479.68 1081.42L1528.75 1109.75M1430.6 1109.75L1381.52 1081.42M1430.6 1109.75V1166.42M1430.6 1166.42L1479.68 1194.75M1479.68 1194.75V1251.42M1479.68 1194.75L1528.75 1166.42M1479.68 1251.42L1430.6 1279.75M1479.68 1251.42L1528.75 1279.75V1336.42L1479.68 1364.75M1430.6 1279.75V1336.42M1430.6 1336.42L1479.68 1364.75M1430.6 1336.42L1381.52 1364.75V1421.42M1479.68 1364.75V1421.42L1430.6 1449.75M1430.6 1449.75L1381.52 1421.42M1528.75 316.42V259.753L1479.68 231.42L1430.6 259.753V316.42L1479.68 344.753M1528.75 316.42L1479.68 344.753M1528.75 316.42L1577.83 344.753V401.42L1528.75 429.753M1479.68 344.753V401.42M1528.75 429.753L1479.68 401.42M1528.75 656.42V599.753L1479.68 571.42L1430.6 599.753V656.42L1479.68 684.753M1528.75 656.42L1479.68 684.753M1528.75 656.42L1577.83 684.753V741.42M1479.68 684.753V741.42L1528.75 769.753M1577.83 741.42L1528.75 769.753M1577.83 741.42L1626.9 769.753V826.42M1528.75 769.753V826.42M1528.75 826.42L1577.83 854.753M1528.75 826.42L1479.68 854.753V911.42L1528.75 939.753L1577.83 911.42M1577.83 854.753V911.42M1577.83 854.753L1626.9 826.42M1577.83 911.42L1626.9 939.753M1528.75 1109.75V1166.42M1528.75 1109.75L1577.83 1081.42M1528.75 1166.42L1577.83 1194.75L1626.9 1166.42M1626.9 486.42L1675.98 514.753M1626.9 486.42L1577.83 514.753V571.42L1626.9 599.753L1675.98 571.42V514.753M1626.9 486.42V429.753L1675.98 401.42L1725.06 429.753M1675.98 514.753L1725.06 486.42M1626.9 826.42L1675.98 854.753V911.42M1675.98 911.42L1626.9 939.753M1675.98 911.42L1725.06 939.753M1626.9 939.753V996.42M1626.9 996.42L1675.98 1024.75M1626.9 996.42L1577.83 1024.75V1081.42M1675.98 1024.75V1081.42M1675.98 1024.75L1725.06 996.42M1675.98 1081.42L1626.9 1109.75M1675.98 1081.42L1725.06 1109.75M1626.9 1109.75L1577.83 1081.42M1626.9 1109.75V1166.42M1626.9 1166.42L1675.98 1194.75M1626.9 1449.75L1577.83 1421.42L1528.75 1449.75V1506.42L1577.83 1534.75L1626.9 1506.42M1626.9 1449.75V1506.42M1626.9 1449.75L1675.98 1421.42M1626.9 1506.42L1675.98 1534.75L1725.06 1506.42V1449.75M1725.06 89.7534L1675.98 61.42L1626.9 89.7534V146.42L1675.98 174.753L1725.06 146.42M1725.06 89.7534V146.42M1725.06 89.7534L1774.13 61.42L1823.2 89.7534V146.42M1725.06 146.42L1774.13 174.753M1725.06 429.753V486.42M1725.06 429.753L1774.13 401.42M1725.06 486.42L1774.13 514.753M1725.06 939.753V996.42M1725.06 939.753L1774.13 911.42L1823.2 939.753V996.42L1774.13 1024.75L1725.06 996.42M1725.06 1109.75V1166.42M1725.06 1109.75L1774.13 1081.42L1823.2 1109.75V1166.42M1725.06 1166.42L1675.98 1194.75M1725.06 1166.42L1774.13 1194.75M1675.98 1194.75V1251.42L1725.06 1279.75M1774.13 1194.75V1251.42M1774.13 1194.75L1823.2 1166.42M1774.13 1251.42L1725.06 1279.75M1774.13 1251.42L1823.2 1279.75M1725.06 1279.75V1336.42M1725.06 1336.42L1774.13 1364.75M1725.06 1336.42L1675.98 1364.75V1421.42M1774.13 1364.75V1421.42M1774.13 1364.75L1823.2 1336.42M1774.13 1421.42L1725.06 1449.75M1774.13 1421.42L1823.2 1449.75L1872.29 1421.42V1364.75L1823.2 1336.42M1725.06 1449.75L1675.98 1421.42M1823.2 146.42L1774.13 174.753M1823.2 146.42L1872.29 174.753V231.42L1823.2 259.753L1774.13 231.42V174.753M1823.2 429.753L1872.29 401.42V344.753L1823.2 316.42L1774.13 344.753V401.42M1823.2 429.753L1774.13 401.42M1823.2 429.753V486.42M1823.2 486.42L1774.13 514.753M1823.2 486.42L1872.29 514.753V571.42L1823.2 599.753L1774.13 571.42V514.753M1823.2 1166.42L1872.29 1194.75V1251.42L1823.2 1279.75M1823.2 1279.75V1336.42M7.38937 -278.58L56.4627 -250.247V-193.58L7.38937 -165.247L-41.684 -193.58V-250.247L7.38937 -278.58ZM203.694 231.42L252.767 259.753V316.42L203.694 344.753L154.621 316.42V259.753L203.694 231.42ZM252.767 1166.42L301.841 1194.75V1251.42L252.767 1279.75L203.694 1251.42V1194.75L252.767 1166.42ZM1479.68 61.42L1528.75 89.7534V146.42L1479.68 174.753L1430.6 146.42V89.7534L1479.68 61.42ZM1675.98 -278.58L1725.06 -250.247V-193.58L1675.98 -165.247L1626.9 -193.58V-250.247L1675.98 -278.58ZM1823.2 -193.58L1872.29 -165.247V-108.58L1823.2 -80.2466L1774.13 -108.58V-165.247L1823.2 -193.58ZM1774.13 741.42L1823.2 769.753V826.42L1774.13 854.753L1725.06 826.42V769.753L1774.13 741.42Z" stroke="black" stroke-width="2"/>
</g>
</g>
<defs>
<clipPath id="clip0_93_869">
<rect width="1813.33" height="1700" fill="white" transform="translate(0 -266)"/>
</clipPath>
</defs>
</svg>
