<?xml version="1.0" encoding="UTF-8" standalone="no" ?>
<!DOCTYPE svg PUBLIC "-//W3C//DTD SVG 1.1//EN" "http://www.w3.org/Graphics/SVG/1.1/DTD/svg11.dtd">
<svg xmlns="http://www.w3.org/2000/svg" xmlns:xlink="http://www.w3.org/1999/xlink" version="1.1" width="1280" height="1024" viewBox="0 0 1280 1024" xml:space="preserve">
<desc>Created with Fabric.js 4.4.0</desc>
<defs>
</defs>
<g transform="matrix(1 0 0 1 640 512)" id="background-logo"  >
<rect style="stroke: none; stroke-width: 0; stroke-dasharray: none; stroke-linecap: butt; stroke-dashoffset: 0; stroke-linejoin: miter; stroke-miterlimit: 4; fill: rgb(255,255,255); fill-opacity: 0; fill-rule: nonzero; opacity: 1;"  paint-order="stroke"  x="-640" y="-512" rx="0" ry="0" width="1280" height="1024" />
</g>
<g transform="matrix(1.1626158881812854 0 0 1.1626158881812854 1019.5919622928084 512.560754143829)" id="logo-logo"  >
<g style=""  paint-order="stroke"   >
		<g transform="matrix(0.11902011373458597 0 0 -0.11902011373458597 -30.731823023521883 -14.259574774559809)"  >
<linearGradient id="SVGID_170742" gradientUnits="userSpaceOnUse" gradientTransform="matrix(1 0 0 1 764.4291549761581 731.0899999999999)"  x1="0" y1="0" x2="0" y2="134">
<stop offset="0%" style="stop-color:rgb(66,230,149);stop-opacity: 1"/>
<stop offset="100%" style="stop-color:rgb(59,178,184);stop-opacity: 1"/>
</linearGradient>
<path style="stroke: none; stroke-width: 1; stroke-dasharray: none; stroke-linecap: butt; stroke-dashoffset: 0; stroke-linejoin: miter; stroke-miterlimit: 4; fill: url(#SVGID_170742); fill-rule: nonzero; opacity: 1;"  paint-order="stroke"  transform=" translate(-824.869077488079, -798.039)" d="M 765.211 864.988 C 761.863 823.773 769.273 778.875 787.336 731.09 C 818.902 734.969 851.711 737.207 885.309 737.793 C 876.148 777.75 873.355 816.402 876.9409999999999 853.191 C 830.9449999999999 859.9100000000001 791.8129999999999 863.293 765.2109999999999 864.988" stroke-linecap="round" />
</g>
		<g transform="matrix(0.11902011373458597 0 0 -0.11902011373458597 -55.00298090960018 -10.650825416070319)"  >
<linearGradient id="SVGID_170743" gradientUnits="userSpaceOnUse" gradientTransform="matrix(1 0 0 1 538.0294710109297 668.789)"  x1="0" y1="0" x2="0" y2="198">
<stop offset="0%" style="stop-color:rgb(66,230,149);stop-opacity: 1"/>
<stop offset="100%" style="stop-color:rgb(59,178,184);stop-opacity: 1"/>
</linearGradient>
<path style="stroke: none; stroke-width: 1; stroke-dasharray: none; stroke-linecap: butt; stroke-dashoffset: 0; stroke-linejoin: miter; stroke-miterlimit: 4; fill: url(#SVGID_170743); fill-rule: nonzero; opacity: 1;"  paint-order="stroke"  transform=" translate(-620.9442355054648, -767.7185)" d="M 551.066 866.648 C 535.34 824.211 527.938 758.738 563.746 668.789 C 607.4019999999999 689.09 654.3629999999999 705.066 703.8589999999999 716.461 C 686.1089999999999 768.6800000000001 678.7339999999999 819.0160000000001 681.8199999999999 866.648 L 551.066 866.648" stroke-linecap="round" />
</g>
		<g transform="matrix(0.11902011373458597 0 0 -0.11902011373458597 -77.12081422506978 -2.995630230832404)"  >
<linearGradient id="SVGID_170744" gradientUnits="userSpaceOnUse" gradientTransform="matrix(1 0 0 1 380.289 540.152)"  x1="0" y1="0" x2="0" y2="326">
<stop offset="0%" style="stop-color:rgb(66,230,149);stop-opacity: 1"/>
<stop offset="100%" style="stop-color:rgb(59,178,184);stop-opacity: 1"/>
</linearGradient>
<path style="stroke: none; stroke-width: 1; stroke-dasharray: none; stroke-linecap: butt; stroke-dashoffset: 0; stroke-linejoin: miter; stroke-miterlimit: 4; fill: url(#SVGID_170744); fill-rule: nonzero; opacity: 1;"  paint-order="stroke"  transform=" translate(-435.1115, -703.4000000000001)" d="M 380.289 866.648 L 380.289 540.152 C 413.758 573.719 450.44899999999996 603.238 489.93399999999997 628.3670000000001 C 446.109 733.4730000000001 450.72999999999996 814.691 463.902 866.6480000000001 L 380.289 866.6480000000001" stroke-linecap="round" />
</g>
		<g transform="matrix(0.11902011373458597 0 0 -0.11902011373458597 17.44108270745687 -5.381388410642131)"  >
<linearGradient id="SVGID_170745" gradientUnits="userSpaceOnUse" gradientTransform="matrix(1 0 0 1 1153.9 670.3589999999999)"  x1="0" y1="0" x2="0" y2="106">
<stop offset="0%" style="stop-color:rgb(66,230,149);stop-opacity: 1"/>
<stop offset="100%" style="stop-color:rgb(59,178,184);stop-opacity: 1"/>
</linearGradient>
<path style="stroke: none; stroke-width: 1; stroke-dasharray: none; stroke-linecap: butt; stroke-dashoffset: 0; stroke-linejoin: miter; stroke-miterlimit: 4; fill: url(#SVGID_170745); fill-rule: nonzero; opacity: 1;"  paint-order="stroke"  transform=" translate(-1229.6150000000002, -723.4449999999999)" d="M 1153.9 776.531 C 1155.72 754.391 1160.3000000000002 731.3439999999999 1167.6100000000001 707.645 C 1220.5100000000002 696.043 1267.16 682.723 1305.3300000000002 670.3589999999999 C 1268.64 711.52 1217.9800000000002 747.059 1153.9 776.531" stroke-linecap="round" />
</g>
		<g transform="matrix(0.11902011373458597 0 0 -0.11902011373458597 -7.741778546396915 -12.287173449750298)"  >
<linearGradient id="SVGID_170746" gradientUnits="userSpaceOnUse" gradientTransform="matrix(1 0 0 1 958.7201598163244 724.375)"  x1="0" y1="0" x2="0" y2="114">
<stop offset="0%" style="stop-color:rgb(66,230,149);stop-opacity: 1"/>
<stop offset="100%" style="stop-color:rgb(59,178,184);stop-opacity: 1"/>
</linearGradient>
<path style="stroke: none; stroke-width: 1; stroke-dasharray: none; stroke-linecap: butt; stroke-dashoffset: 0; stroke-linejoin: miter; stroke-miterlimit: 4; fill: url(#SVGID_170746); fill-rule: nonzero; opacity: 1;"  paint-order="stroke"  transform=" translate(-1018.0300799081622, -781.4670000000001)" d="M 959.293 838.559 C 957.066 806.434 961.336 771.9879999999999 972.039 735.75 C 1006.38 733.563 1041.6399999999999 729.754 1077.34 724.375 C 1071.48 753.395 1068.99 781.773 1069.9099999999999 809.176 C 1035.4299999999998 820.445 998.3549999999998 830.297 959.2929999999999 838.5590000000001" stroke-linecap="round" />
</g>
		<g transform="matrix(0.11902011373458597 0 0 -0.11902011373458597 -38.24791672246687 50.54963135076605)"  >
<linearGradient id="SVGID_170747" gradientUnits="userSpaceOnUse" gradientTransform="matrix(1 0 0 1 82.05859999999996 0.011718800000011242)"  x1="0" y1="0" x2="0" y2="507">
<stop offset="0%" style="stop-color:rgb(66,230,149);stop-opacity: 1"/>
<stop offset="100%" style="stop-color:rgb(59,178,184);stop-opacity: 1"/>
</linearGradient>
<path style="stroke: none; stroke-width: 1; stroke-dasharray: none; stroke-linecap: butt; stroke-dashoffset: 0; stroke-linejoin: miter; stroke-miterlimit: 4; fill: url(#SVGID_170747); fill-rule: nonzero; opacity: 1;"  paint-order="stroke"  transform=" translate(-761.7193, -253.5158594)" d="M 790.934 304 L 386.059 304 L 82.0586 0.0117188 L 942.938 0.0117188 L 1441.38 423.484 L 1105.09 507.02 L 790.934 304" stroke-linecap="round" />
</g>
		<g transform="matrix(0.11902011373458597 0 0 -0.11902011373458597 0 -9.044831257374085)"  >
<linearGradient id="SVGID_170748" gradientUnits="userSpaceOnUse" gradientTransform="matrix(1 0 0 1 0.003055609856346564 152)"  x1="0" y1="0" x2="0" y2="1204">
<stop offset="0%" style="stop-color:rgb(66,230,149);stop-opacity: 1"/>
<stop offset="100%" style="stop-color:rgb(59,178,184);stop-opacity: 1"/>
</linearGradient>
<path style="stroke: none; stroke-width: 1; stroke-dasharray: none; stroke-linecap: butt; stroke-dashoffset: 0; stroke-linejoin: miter; stroke-miterlimit: 4; fill: url(#SVGID_170748); fill-rule: nonzero; opacity: 1;"  paint-order="stroke"  transform=" translate(-1083.0760482195444, -754.2250314735154)" d="M 1669.31 703.406 C 1669.31 703.406 1725.8 714.7929999999999 1773.82 641.3549999999999 C 1821.82 567.9179999999999 1708.85 629.8789999999999 1669.31 703.406 z M 2153.0299999999997 547.8399999999999 L 2145.41 563.641 C 2145.41 563.641 2140.12 522.098 2092.68 514.793 C 2045.2399999999998 507.5 1964.9599999999998 489.246 1778.84 741.063 C 1592.71 992.867 1614.61 1215.48 1392 1295.77 C 1392 1295.77 1589.07 1113.3 1527.03 919.8789999999999 C 1527.03 919.8789999999999 1515.8999999999999 930.0229999999999 1493.69 946.5269999999999 C 1485.26 962.3589999999999 1475.21 979.9179999999999 1463.1200000000001 999.242 C 1463.18 999.246 1469.17 981.9019999999999 1473.89 960.766 C 1456.8000000000002 972.703 1435.5900000000001 986.6329999999999 1410.2 1001.73 C 1398.38 1021.94 1383.16 1045.44 1363.32 1072.25 C 1363.3799999999999 1072.25 1373.45 1047 1379.1699999999998 1019.57 C 1358.9199999999998 1030.8200000000002 1336.6299999999999 1042.48 1312.1999999999998 1054.26 C 1297.4399999999998 1077.55 1276.7599999999998 1106.28 1247.9999999999998 1139.68 C 1248.0399999999997 1139.7 1262.8299999999997 1106.92 1268.6599999999999 1074.3600000000001 C 1246.7099999999998 1084.0500000000002 1223.31 1093.69 1198.55 1103.13 C 1181.34 1128.5800000000002 1155.36 1161.68 1116.58 1200.8400000000001 C 1116.61 1200.8600000000001 1136.8 1160.69 1141.84 1123.5100000000002 C 1118.6599999999999 1131.3400000000001 1094.4399999999998 1138.9300000000003 1069.1599999999999 1146.1800000000003 C 1050.07 1173.0800000000004 1018.7699999999999 1210.2700000000002 968.5819999999999 1254.6300000000003 C 968.6019999999999 1254.6400000000003 995.1049999999999 1206.6600000000003 998.1519999999999 1164.8400000000004 C 974.2929999999999 1170.5700000000004 949.656 1175.9700000000005 924.1759999999999 1180.9400000000003 C 904.012 1208.6200000000003 867.496 1250.0600000000004 803.8789999999999 1299.4600000000003 C 803.8399999999999 1299.4900000000002 837.9959999999999 1242.5700000000002 837.117 1195.7100000000003 C 813.3159999999999 1199.1800000000003 788.906 1202.2700000000002 763.867 1204.9300000000003 C 744.117 1232.2500000000002 702.8829999999999 1278.7000000000003 622.809 1333.2500000000002 C 622.742 1333.2900000000002 666.184 1265.8600000000001 658.309 1213.3200000000002 C 642.297 1214.17 626.1129999999999 1214.89 609.66 1215.38 L 609.5269999999999 1215.71 L 609.41 1216.01 L 588.254 1216.01 C 571.621 1240.46 527.3240000000001 1293.45 426.586 1353.32 C 426.445 1353.37 480.07800000000003 1275.02 462.15200000000004 1216.01 L 395.06300000000005 1216.01 C 383.16 1235.04 338.19900000000007 1294.6 217.61300000000006 1356.45 C 217.40200000000004 1356.53 272.05500000000006 1280.3400000000001 255.92200000000005 1216.01 L 177.086 1216.01 C 157.43 1241.38 107.445 1292.27 0.00390625 1338.87 C -0.246094 1338.94 54.7109 1288.8 30.9297 1216.01 L 30.9297 896.574 L 30.9297 152 L 30.9297 152 L 30.9297 152 L 334.934 456.004 L 334.934 912.008 L 729.1210000000001 912.008 L 729.1210000000001 912.008 L 729.1210000000001 912.008 C 729.1210000000001 912.008 1265.39 906.469 1394.96 614.9300000000001 L 1141.21 544.7420000000001 C 1141.21 544.7420000000001 1610.92 458.3550000000001 1718.8899999999999 344.9800000000001 C 1826.87 231.6020000000001 1816.08 199.21100000000007 1891.6699999999998 199.21100000000007 C 1967.2399999999998 199.21100000000007 1988.84 274.7890000000001 1988.84 274.7890000000001 C 1988.84 274.7890000000001 1956.4499999999998 242.3980000000001 1897.06 296.3790000000001 C 1837.6699999999998 350.3790000000001 1751.29 469.15600000000006 1751.29 469.15600000000006 C 1751.29 469.15600000000006 1967.24 442.15600000000006 1988.84 382.7700000000001 C 2010.4399999999998 323.3910000000001 2075.22 296.3790000000001 2075.22 296.3790000000001 L 2148.7799999999997 425.1050000000001 C 2170.33 462.82000000000005 2171.9199999999996 508.7270000000001 2153.0299999999997 547.84" stroke-linecap="round" />
</g>
</g>
</g>
<g transform="matrix(1.9211538461538462 0 0 1.9211538461538462 461.06896024565805 508.7762347592136)" id="text-logo"  >
<g style=""  paint-order="stroke"   >
		<g transform="matrix(1 0 0 1 2.842171e-14 0)" id="text-logo-path-0"  >
<path style="stroke: rgb(255,255,255); stroke-width: 0; stroke-dasharray: none; stroke-linecap: butt; stroke-dashoffset: 0; stroke-linejoin: miter; stroke-miterlimit: 4; fill: rgb(255,255,255); fill-rule: nonzero; opacity: 1;"  paint-order="stroke"  transform=" translate(-182.51999999999998, 24.59)" d="M 26.14 -32.4 L 26.14 -38.38 C 26.14 -45 20.81 -50.4 14.18 -50.4 L 2.16 -50.4 L 2.16 0 L 9.36 0 L 9.36 -20.38 L 14.18 -20.38 C 16.78 -20.38 18.94 -18.22 18.94 -15.62 L 18.94 0 L 26.14 0 L 26.14 -15.62 C 26.14 -18.86 24.84 -21.82 22.75 -23.98 C 24.84 -26.14 26.14 -29.16 26.14 -32.4 Z M 9.36 -27.58 L 9.36 -43.2 L 14.18 -43.2 C 16.78 -43.2 18.94 -41.04 18.94 -38.38 L 18.94 -32.4 C 18.94 -29.74 16.78 -27.58 14.18 -27.58 Z M 53.93 -9.58 L 64.73 -9.58 L 66.53 0 L 73.73 0 L 64.15 -50.4 L 54.5 -50.4 L 44.93 0 L 52.13 0 Z M 55.37 -17.14 L 59.33 -37.8 L 63.29 -17.14 Z M 104.54 -50.4 L 92.52 -50.4 L 92.52 0 L 99.72 0 L 99.72 -20.38 L 104.54 -20.38 C 111.17 -20.38 116.5 -25.78 116.5 -32.4 L 116.5 -38.38 C 116.5 -45 111.17 -50.4 104.54 -50.4 Z M 99.72 -27.58 L 99.72 -43.2 L 104.54 -43.2 C 107.14 -43.2 109.3 -41.04 109.3 -38.38 L 109.3 -32.4 C 109.3 -29.74 107.14 -27.58 104.54 -27.58 Z M 135.29 -50.4 L 135.29 0 L 142.49 0 L 142.49 -50.4 Z M 174.46 -50.4 L 161.28 -50.4 L 161.28 0 L 174.46 0 C 181.73 0 187.7 -5.9 187.7 -13.18 L 187.7 -37.22 C 187.7 -44.5 181.73 -50.4 174.46 -50.4 Z M 168.48 -7.2 L 168.48 -43.2 L 174.46 -43.2 C 177.77 -43.2 180.5 -40.54 180.5 -37.22 L 180.5 -13.18 C 180.5 -9.86 177.77 -7.2 174.46 -7.2 Z M 254.74 -50.4 L 241.56 -50.4 L 241.56 0 L 254.74 0 C 262.01 0 267.98 -5.9 267.98 -13.18 L 267.98 -37.22 C 267.98 -44.5 262.01 -50.4 254.74 -50.4 Z M 248.76 -7.2 L 248.76 -43.2 L 254.74 -43.2 C 258.05 -43.2 260.78 -40.54 260.78 -37.22 L 260.78 -13.18 C 260.78 -9.86 258.05 -7.2 254.74 -7.2 Z M 317.74 -22.54 L 317.74 -29.74 L 299.88 -29.74 C 298.3 -29.74 296.78 -30.38 295.63 -31.46 C 294.55 -32.62 293.9 -34.13 293.9 -35.71 L 293.9 -37.22 C 293.9 -40.54 296.57 -43.2 299.88 -43.2 L 305.64 -43.2 L 305.64 -50.4 L 299.88 -50.4 C 292.61 -50.4 286.7 -44.5 286.7 -37.22 L 286.7 -35.71 C 286.7 -32.18 288.07 -28.87 290.59 -26.42 C 290.66 -26.28 290.74 -26.21 290.88 -26.14 C 288.29 -23.76 286.7 -20.3 286.7 -16.56 L 286.7 -12.02 C 286.7 -4.75 292.61 1.22 299.88 1.22 C 307.15 1.22 313.13 -4.75 313.13 -12.02 L 313.13 -22.54 Z M 293.9 -12.02 L 293.9 -16.56 C 293.9 -19.87 296.57 -22.54 299.88 -22.54 L 305.93 -22.54 L 305.93 -12.02 C 305.93 -8.71 303.19 -5.98 299.88 -5.98 C 296.57 -5.98 293.9 -8.71 293.9 -12.02 Z M 349.63 -50.4 L 336.46 -50.4 L 336.46 0 L 349.63 0 C 356.9 0 362.88 -5.9 362.88 -13.18 L 362.88 -37.22 C 362.88 -44.5 356.9 -50.4 349.63 -50.4 Z M 343.66 -7.2 L 343.66 -43.2 L 349.63 -43.2 C 352.94 -43.2 355.68 -40.54 355.68 -37.22 L 355.68 -13.18 C 355.68 -9.86 352.94 -7.2 349.63 -7.2 Z" stroke-linecap="round" />
</g>
</g>
</g>
</svg>